<?xml version="1.0" standalone="no"?>
<!DOCTYPE svg PUBLIC "-//W3C//DTD SVG 20010904//EN"
 "http://www.w3.org/TR/2001/REC-SVG-20010904/DTD/svg10.dtd">
<svg version="1.0" xmlns="http://www.w3.org/2000/svg"
 width="16.000000pt" height="16.000000pt" viewBox="0 0 16.000000 16.000000"
 preserveAspectRatio="xMidYMid meet">
<metadata>
Created by potrace 1.11, written by Peter Selinger 2001-2013
</metadata>
<g transform="translate(0.000000,16.000000) scale(0.002286,-0.002286)"
fill="#000000" stroke="none">
<path d="M1480 6973 c-57 -9 -197 -46 -230 -60 -90 -39 -169 -78 -215 -106
-127 -80 -253 -197 -339 -317 -56 -77 -146 -246 -146 -273 0 -7 -4 -17 -9 -23
-11 -12 -48 -155 -58 -224 -10 -67 -9 -298 0 -361 10 -60 49 -201 76 -267 117
-291 369 -541 658 -651 32 -13 65 -26 74 -31 9 -5 65 -19 125 -31 159 -33 382
-32 509 2 22 6 48 13 58 15 34 6 142 47 192 71 335 166 559 445 649 808 34
137 39 356 11 485 -3 14 -8 38 -10 53 -10 55 -58 183 -97 261 -114 229 -306
423 -528 533 -99 49 -248 98 -340 113 -62 9 -328 12 -380 3z"/>
<path d="M6180 6806 c10 -28 8 -48 -13 -97 -51 -120 -420 -386 -927 -667 -25
-14 -74 -42 -110 -62 -66 -38 -491 -264 -740 -393 -74 -38 -171 -89 -215 -112
-44 -23 -161 -84 -260 -136 -99 -51 -211 -110 -250 -130 -38 -21 -95 -50 -125
-65 -30 -15 -84 -44 -120 -64 -36 -20 -110 -61 -165 -90 -145 -77 -809 -446
-884 -491 -34 -22 -65 -39 -67 -39 -4 0 -151 -88 -374 -225 -139 -86 -570
-371 -580 -384 -3 -4 -36 -29 -75 -56 -71 -50 -313 -237 -350 -272 -12 -10
-54 -47 -95 -82 -119 -103 -330 -318 -412 -421 -113 -141 -206 -301 -254 -435
-24 -68 -29 -311 -7 -410 26 -123 69 -211 137 -280 108 -110 209 -145 409
-141 246 5 521 92 896 284 139 71 172 89 266 142 22 12 69 38 105 58 36 19 79
42 95 52 67 41 257 139 555 288 292 147 353 176 515 247 78 34 108 48 175 78
208 94 632 243 773 271 12 3 56 12 97 21 111 24 228 26 290 5 95 -32 122 -81
79 -142 -45 -63 -276 -217 -574 -383 -125 -69 -178 -98 -400 -215 -55 -29
-122 -65 -150 -80 -27 -15 -70 -38 -95 -51 -108 -55 -469 -265 -615 -359 -159
-101 -415 -279 -530 -368 -96 -74 -315 -300 -373 -384 -132 -194 -178 -384
-128 -533 57 -167 207 -317 406 -408 198 -91 548 -179 855 -217 50 -6 107 -13
127 -15 154 -20 757 -28 903 -12 96 11 240 35 299 50 l49 13 -109 28 c-408
103 -598 231 -609 407 -4 66 16 123 75 209 41 60 152 176 213 223 16 12 50 38
75 58 83 64 525 357 682 453 25 15 119 74 210 131 91 57 203 127 250 156 511
314 800 544 971 771 177 234 203 400 91 574 -124 190 -390 365 -660 434 -244
62 -671 59 -977 -7 -38 -8 -83 -17 -100 -20 -57 -10 -255 -63 -377 -102 -338
-108 -851 -324 -1488 -628 -320 -153 -430 -190 -446 -149 -3 9 0 24 7 33 31
37 198 128 459 251 81 38 181 85 438 208 64 31 153 73 197 94 44 21 148 70
230 110 83 40 191 91 240 115 50 23 131 61 180 85 124 58 599 294 660 327 28
15 124 67 215 117 324 175 602 343 885 534 110 74 211 143 225 154 14 10 77
58 140 105 564 425 851 816 859 1173 7 282 -118 500 -406 714 -77 57 -265 176
-278 176 -2 0 0 -11 5 -24z"/>
</g>
</svg>
