<?xml version="1.0" encoding="UTF-8" standalone="no"?>
<svg
   xmlns:dc="http://purl.org/dc/elements/1.1/"
   xmlns:cc="http://creativecommons.org/ns#"
   xmlns:rdf="http://www.w3.org/1999/02/22-rdf-syntax-ns#"
   xmlns:svg="http://www.w3.org/2000/svg"
   xmlns="http://www.w3.org/2000/svg"
   xmlns:sodipodi="http://sodipodi.sourceforge.net/DTD/sodipodi-0.dtd"
   xmlns:inkscape="http://www.inkscape.org/namespaces/inkscape"
   height="50cm"
   version="1.0"
   viewBox="0 0 1889.7638 1889.7638"
   width="50cm"
   xml:space="preserve"
   id="svg18"
   sodipodi:docname="invoice.svg"
   inkscape:version="0.92.1 r15371"
   inkscape:export-filename="K:\invoice.png"
   inkscape:export-xdpi="152.39999"
   inkscape:export-ydpi="152.39999"><metadata
     id="metadata24"><rdf:RDF><cc:Work
         rdf:about=""><dc:format>image/svg+xml</dc:format><dc:type
           rdf:resource="http://purl.org/dc/dcmitype/StillImage" /><dc:title></dc:title></cc:Work></rdf:RDF></metadata><defs
     id="defs22" /><sodipodi:namedview
     pagecolor="#ffffff"
     bordercolor="#666666"
     borderopacity="1"
     objecttolerance="10"
     gridtolerance="10"
     guidetolerance="10"
     inkscape:pageopacity="0"
     inkscape:pageshadow="2"
     inkscape:window-width="1280"
     inkscape:window-height="777"
     id="namedview20"
     showgrid="false"
     inkscape:zoom="0.13409091"
     inkscape:cx="-14.682205"
     inkscape:cy="54.999999"
     inkscape:window-x="-8"
     inkscape:window-y="-8"
     inkscape:window-maximized="1"
     inkscape:current-layer="layer1"
     units="cm"
     inkscape:document-units="cm"
     borderlayer="true" /><g
     id="Artboard"
     transform="translate(0,1779.7673)" /><g
     id="Multicolor"
     transform="matrix(16.661017,0,0,16.661017,22.372881,27.224692)"
     inkscape:export-xdpi="152.39999"
     inkscape:export-ydpi="152.39999"><circle
       cx="55"
       cy="55"
       r="55"
       style="fill:#e04f5f"
       id="circle3" /></g><g
     inkscape:groupmode="layer"
     id="layer2"
     inkscape:label="Layer 2"
     transform="translate(0,1779.7673)"><path
       d="m 476.73852,-1279.2681 c 0,-28.3035 22.93907,-51.2425 51.24258,-51.2425 h 375.77834 l 213.51046,179.3488 v 623.45056 c 0,28.30348 -22.939,51.24249 -51.2425,51.24249 H 527.9811 c -28.30351,0 -51.24258,-22.93901 -51.24258,-51.24249 z"
       style="fill:#ffffff;stroke-width:13.34440327"
       id="path5"
       inkscape:connector-curvature="0"
       inkscape:export-xdpi="152.39999"
       inkscape:export-ydpi="152.39999" /><path
       d="m 903.75944,-1330.5106 v 128.1063 c 0,28.3035 22.93904,51.2425 51.24252,51.2425 h 162.26794 z"
       style="fill:#f0f1f1;stroke-width:13.34440327"
       id="path7-9"
       inkscape:connector-curvature="0"
       inkscape:export-xdpi="152.39999"
       inkscape:export-ydpi="152.39999" /><path
       d="m 997.17023,-1036.9337 c 0,7.3395 -6.00493,13.3444 -13.34436,13.3444 H 783.65982 c -7.33944,0 -13.34442,-6.0049 -13.34442,-13.3444 v 0 c 0,-7.3394 6.00498,-13.3444 13.34442,-13.3444 h 200.16605 c 7.33943,0 13.34436,6.005 13.34436,13.3444 z"
       style="fill:#e2e4e5;stroke-width:13.34440327"
       id="path15"
       inkscape:connector-curvature="0"
       inkscape:export-xdpi="152.39999"
       inkscape:export-ydpi="152.39999" /><path
       d="m 917.10385,-970.21168 c 0,7.33942 -6.00499,13.34441 -13.34441,13.34441 H 783.65982 c -7.33944,0 -13.34442,-6.00499 -13.34442,-13.34441 v 0 c 0,-7.33943 6.00498,-13.34441 13.34442,-13.34441 h 120.09962 c 7.33942,0 13.34441,6.00498 13.34441,13.34441 z"
       style="fill:#e2e4e5;stroke-width:13.34440327"
       id="path17"
       inkscape:connector-curvature="0"
       inkscape:export-xdpi="152.39999"
       inkscape:export-ydpi="152.39999" /><path
       d="m 997.17023,-863.45647 c 0,7.33944 -6.00493,13.34442 -13.34436,13.34442 H 783.65982 c -7.33944,0 -13.34442,-6.00498 -13.34442,-13.34442 v 0 c 0,-7.3394 6.00498,-13.34438 13.34442,-13.34438 h 200.16605 c 7.33943,0 13.34436,6.00498 13.34436,13.34438 z"
       style="fill:#e2e4e5;stroke-width:13.34440327"
       id="path19"
       inkscape:connector-curvature="0"
       inkscape:export-xdpi="152.39999"
       inkscape:export-ydpi="152.39999" /><path
       d="m 917.10385,-796.73444 c 0,7.33943 -6.00499,13.34441 -13.34441,13.34441 H 783.65982 c -7.33944,0 -13.34442,-6.00498 -13.34442,-13.34441 v 0 c 0,-7.33942 6.00498,-13.34441 13.34442,-13.34441 h 120.09962 c 7.33942,0 13.34441,6.00499 13.34441,13.34441 z"
       style="fill:#e2e4e5;stroke-width:13.34440327"
       id="path21"
       inkscape:connector-curvature="0"
       inkscape:export-xdpi="152.39999"
       inkscape:export-ydpi="152.39999" /><path
       d="m 997.17023,-689.9792 c 0,7.33942 -6.00493,13.3444 -13.34436,13.3444 H 783.65982 c -7.33944,0 -13.34442,-6.00498 -13.34442,-13.3444 v 0 c 0,-7.33943 6.00498,-13.3444 13.34442,-13.3444 h 200.16605 c 7.33943,0 13.34436,6.00497 13.34436,13.3444 z"
       style="fill:#e2e4e5;stroke-width:13.34440327"
       id="path23"
       inkscape:connector-curvature="0"
       inkscape:export-xdpi="152.39999"
       inkscape:export-ydpi="152.39999" /><path
       d="m 917.10385,-623.25718 c 0,7.33941 -6.00499,13.34441 -13.34441,13.34441 H 783.65982 c -7.33944,0 -13.34442,-6.005 -13.34442,-13.34441 v 0 c 0,-7.33943 6.00498,-13.3444 13.34442,-13.3444 h 120.09962 c 7.33942,0 13.34441,6.00497 13.34441,13.3444 z"
       style="fill:#e2e4e5;stroke-width:13.34440327"
       id="path25"
       inkscape:connector-curvature="0"
       inkscape:export-xdpi="152.39999"
       inkscape:export-ydpi="152.39999" /><g
       transform="matrix(13.344404,0,0,13.344404,169.81721,-1637.4319)"
       id="g29"
       inkscape:export-xdpi="152.39999"
       inkscape:export-ydpi="152.39999"><path
         d="m 35.067,52 -3.774,-3.774 c -0.391,-0.39 -0.391,-1.024 0,-1.414 0.391,-0.391 1.024,-0.391 1.414,0 l 2.226,2.226 4.299,-5.159 c 0.354,-0.425 0.984,-0.482 1.408,-0.128 0.424,0.354 0.482,0.984 0.128,1.408 z"
         style="fill:#17b198"
         id="path27"
         inkscape:connector-curvature="0" /></g><g
       transform="matrix(13.344404,0,0,13.344404,169.81721,-1637.4319)"
       id="g33"
       inkscape:export-xdpi="152.39999"
       inkscape:export-ydpi="152.39999"><path
         d="m 35.067,65 -3.774,-3.774 c -0.391,-0.39 -0.391,-1.024 0,-1.414 0.391,-0.391 1.024,-0.391 1.414,0 l 2.226,2.226 4.299,-5.159 c 0.354,-0.425 0.984,-0.482 1.408,-0.128 0.424,0.354 0.482,0.984 0.128,1.408 z"
         style="fill:#17b198"
         id="path31"
         inkscape:connector-curvature="0" /></g><g
       transform="matrix(13.344404,0,0,13.344404,169.81721,-1637.4319)"
       id="g37"
       inkscape:export-xdpi="152.39999"
       inkscape:export-ydpi="152.39999"><path
         d="m 35.067,78 -3.774,-3.774 c -0.391,-0.39 -0.391,-1.024 0,-1.414 0.391,-0.391 1.024,-0.391 1.414,0 l 2.226,2.226 4.299,-5.159 c 0.354,-0.425 0.984,-0.482 1.408,-0.128 0.424,0.354 0.482,0.984 0.128,1.408 z"
         style="fill:#17b198"
         id="path35"
         inkscape:connector-curvature="0" /></g></g><g
     inkscape:groupmode="layer"
     id="layer1"
     inkscape:label="Layer 1"
     transform="translate(0,1779.7673)"><g
       id="g15"
       transform="matrix(12.939939,0,0,12.939939,2010.311,-1138.3779)"
       inkscape:export-xdpi="152.39999"
       inkscape:export-ydpi="152.39999"><rect
         height="39.598091"
         style="fill:#f0f1f1;stroke-width:0.82496023"
         width="52.797455"
         x="-89.825638"
         y="22.446238"
         id="rect5" /><path
         d="m -58.494474,37.860619 c -1.25229,-1.409032 -3.047403,-2.215019 -4.932437,-2.215019 -1.885034,0 -3.680148,0.805987 -4.932437,2.215019 l -21.46629,24.14906 h 52.797454 z"
         style="fill:#e2e4e5;stroke-width:0.82496023"
         id="path7"
         inkscape:connector-curvature="0" /><path
         d="m -68.359348,46.595297 c 1.252289,1.409032 3.047403,2.215019 4.932437,2.215019 1.885034,0 3.680147,-0.805987 4.932437,-2.215019 l 21.46629,-24.14906 h -52.797454 z"
         style="fill:#ffffff;stroke-width:0.82496023"
         id="path9"
         inkscape:connector-curvature="0" /></g></g></svg>