<?xml version="1.0" encoding="UTF-8" standalone="no"?>
<svg
   xmlns:dc="http://purl.org/dc/elements/1.1/"
   xmlns:cc="http://creativecommons.org/ns#"
   xmlns:rdf="http://www.w3.org/1999/02/22-rdf-syntax-ns#"
   xmlns:svg="http://www.w3.org/2000/svg"
   xmlns="http://www.w3.org/2000/svg"
   xmlns:sodipodi="http://sodipodi.sourceforge.net/DTD/sodipodi-0.dtd"
   xmlns:inkscape="http://www.inkscape.org/namespaces/inkscape"
   height="50cm"
   version="1.0"
   viewBox="0 0 1889.7638 1889.7638"
   width="50cm"
   xml:space="preserve"
   id="svg18"
   sodipodi:docname="payment.svg"
   inkscape:version="0.92.1 r15371"
   inkscape:export-filename="K:\invoice.png"
   inkscape:export-xdpi="152.39999"
   inkscape:export-ydpi="152.39999"><metadata
     id="metadata24"><rdf:RDF><cc:Work
         rdf:about=""><dc:format>image/svg+xml</dc:format><dc:type
           rdf:resource="http://purl.org/dc/dcmitype/StillImage" /><dc:title></dc:title></cc:Work></rdf:RDF></metadata><defs
     id="defs22" /><sodipodi:namedview
     pagecolor="#ffffff"
     bordercolor="#666666"
     borderopacity="1"
     objecttolerance="10"
     gridtolerance="10"
     guidetolerance="10"
     inkscape:pageopacity="0"
     inkscape:pageshadow="2"
     inkscape:window-width="1280"
     inkscape:window-height="777"
     id="namedview20"
     showgrid="false"
     inkscape:zoom="0.13409091"
     inkscape:cx="-163.83475"
     inkscape:cy="54.999999"
     inkscape:window-x="-8"
     inkscape:window-y="-8"
     inkscape:window-maximized="1"
     inkscape:current-layer="g17"
     units="cm"
     inkscape:document-units="cm"
     borderlayer="true" /><g
     id="Artboard"
     transform="translate(0,1779.7673)" /><g
     inkscape:groupmode="layer"
     id="layer2"
     inkscape:label="Layer 2"
     transform="translate(0,1779.7673)" /><g
     inkscape:groupmode="layer"
     id="layer1"
     inkscape:label="Layer 1"
     transform="translate(0,1779.7673)" /><g
     id="Multicolor-7"
     transform="matrix(16.79661,0,0,16.79661,21.068343,21.068343)"><circle
       cx="55"
       cy="55"
       r="55"
       style="fill:#25b7d3"
       id="circle3-6" /><g
       id="g17"><path
         inkscape:connector-curvature="0"
         d="M 55,27 C 70.439,27 83,39.561 83,55 83,70.439 70.439,83 55,83 39.561,83 27,70.439 27,55 27,39.561 39.561,27 55,27 m 0,-4 C 37.327,23 23,37.327 23,55 23,72.673 37.327,87 55,87 72.673,87 87,72.673 87,55 87,37.327 72.673,23 55,23 Z"
         style="fill:#fbec9a"
         id="path5" /><path
         inkscape:connector-curvature="0"
         d="M 55,83 C 39.561,83 27,70.439 27,55 27,39.561 39.561,27 55,27 70.439,27 83,39.561 83,55 83,70.439 70.439,83 55,83 Z"
         style="fill:#facb1b"
         id="path7" /><path
         inkscape:connector-curvature="0"
         d="m 55,27 c -15.439,0 -28,12.561 -28,28 0,7.946 3.333,15.124 8.667,20.225 L 75.225,35.667 C 70.124,30.332 62.946,27 55,27 Z"
         style="fill:#fbe158"
         id="path9" /><path
         inkscape:connector-curvature="0"
         d="m 27,55 c 0,-15.439 12.561,-28 28,-28 7.925,0 15.086,3.315 20.185,8.625 l 2.838,-2.838 C 72.203,26.757 64.042,23 55,23 37.327,23 23,37.327 23,55 c 0,9.042 3.757,17.203 9.787,23.022 l 2.838,-2.838 C 30.315,70.086 27,62.925 27,55 Z"
         style="fill:#fcf6c2"
         id="path11" /><g
         id="g4591"
         transform="matrix(0.54277928,0,0,0.54277928,86.978917,1.1808175)"><text
           id="text3762"
           y="112.5791"
           x="-95.504845"
           style="font-style:normal;font-weight:normal;font-size:11.78352928px;line-height:1.25;font-family:sans-serif;letter-spacing:0px;word-spacing:0px;fill:#8e6134;fill-opacity:1;stroke:none;stroke-width:0.29458824"
           xml:space="preserve"><tspan
             style="font-style:normal;font-variant:normal;font-weight:bold;font-stretch:normal;font-size:56.56093979px;font-family:'Arial Rounded MT Bold';-inkscape-font-specification:'Arial Rounded MT Bold,  Bold';fill:#8e6134;fill-opacity:1;stroke-width:0.29458824"
             y="112.5791"
             x="-95.504845"
             id="tspan3760"
             sodipodi:role="line">R</tspan></text>
<text
           id="text3762-3"
           y="114.34242"
           x="-59.889118"
           style="font-style:normal;font-weight:normal;font-size:11.78352928px;line-height:1.25;font-family:sans-serif;letter-spacing:0px;word-spacing:0px;fill:#8e6134;fill-opacity:1;stroke:none;stroke-width:0.29458824"
           xml:space="preserve"><tspan
             style="font-style:normal;font-variant:normal;font-weight:bold;font-stretch:normal;font-size:56.56093979px;font-family:'Arial Rounded MT Bold';-inkscape-font-specification:'Arial Rounded MT Bold,  Bold';fill:#8e6134;fill-opacity:1;stroke-width:0.29458824"
             y="114.34242"
             x="-59.889118"
             id="tspan3760-4"
             sodipodi:role="line">p</tspan></text>
</g></g></g></svg>