<?xml version="1.0" encoding="UTF-8" standalone="no"?>
<svg
   xmlns:dc="http://purl.org/dc/elements/1.1/"
   xmlns:cc="http://creativecommons.org/ns#"
   xmlns:rdf="http://www.w3.org/1999/02/22-rdf-syntax-ns#"
   xmlns:svg="http://www.w3.org/2000/svg"
   xmlns="http://www.w3.org/2000/svg"
   xmlns:sodipodi="http://sodipodi.sourceforge.net/DTD/sodipodi-0.dtd"
   xmlns:inkscape="http://www.inkscape.org/namespaces/inkscape"
   height="110px"
   style="enable-background:new 0 0 110 110;"
   version="1.0"
   viewBox="0 0 110 110"
   width="110px"
   xml:space="preserve"
   id="svg66"
   sodipodi:docname="verify.svg"
   inkscape:version="0.92.1 r"><metadata
     id="metadata72"><rdf:RDF><cc:Work
         rdf:about=""><dc:format>image/svg+xml</dc:format><dc:type
           rdf:resource="http://purl.org/dc/dcmitype/StillImage" /></cc:Work></rdf:RDF></metadata><defs
     id="defs70" /><sodipodi:namedview
     pagecolor="#ffffff"
     bordercolor="#666666"
     borderopacity="1"
     objecttolerance="10"
     gridtolerance="10"
     guidetolerance="10"
     inkscape:pageopacity="0"
     inkscape:pageshadow="2"
     inkscape:window-width="1366"
     inkscape:window-height="708"
     id="namedview68"
     showgrid="false"
     inkscape:zoom="5.6568543"
     inkscape:cx="29.861927"
     inkscape:cy="55.311128"
     inkscape:window-x="0"
     inkscape:window-y="0"
     inkscape:window-maximized="1"
     inkscape:current-layer="g63" /><g
     id="Artboard" /><g
     id="Multicolor"><g
       id="g5"><path
         d="M110,54.976c0,30.362-24.642,56.302-54.976,54.976c-31.69-1.385-55.601-25.265-54.976-54.976    C0.687,24.62,24.662,0,55.024,0S110,24.613,110,54.976z"
         style="fill:#25B7D3;"
         id="path3" /></g><g
       id="g63"><path
         d="M72,58c0-8,0-16,0-16c0-9.389-7.611-17-17-17s-17,7.611-17,17c0,0,0,8,0,16c0,10-9,8-9,8s1,8,14,8    c10.177,0,11.769,0,11.982,0c0.005,0,0.014,0,0.018,0c0.153,0,1.571,0,12,0c13,0,14-8,14-8S72,68,72,58z"
         style="fill:#7b4531;fill-opacity:1"
         id="path7" /><path
         d="M38,42c0,0,0,8,0,16c0,10-9,8-9,8s1,8,14,8c10.177,0,11.769,0,11.982,0c0.005,0,0.014,0,0.018,0V25    C45.611,25,38,32.611,38,42z"
         style="fill:#884d38;fill-opacity:1"
         id="path9" /><path
         d="M83.409,77.663c-0.889-2.311-2.797-4.08-5.168-4.791L62,69l-7,1l-7-1l-16.241,3.872    c-2.371,0.711-4.279,2.48-5.168,4.791L23,87h32h32L83.409,77.663z"
         style="fill:#3E3E3F;"
         id="path11" /><path
         d="M55,69v18h2l8-17v-8.567C62.159,65.829,58.284,67.905,55,69z"
         style="fill:#f5c7b1;fill-opacity:1"
         id="path13" /><path
         style="opacity:1;fill:#f5c7b1;fill-opacity:1;stroke:none;stroke-width:12.04179287;stroke-miterlimit:4;stroke-dasharray:none;stroke-opacity:1"
         d="M 45.043209,43.237436 H 64.953125 L 64.884186,78.090386 56.84375,87 H 52.875 l -7.503048,-8.739119 z"
         id="rect4566"
         inkscape:connector-curvature="0"
         sodipodi:nodetypes="ccccccc" /><path
         d="M45,61.433V70l8,17h2V69C51.716,67.905,47.841,65.829,45,61.433z"
         style="fill:#f6d2c4;fill-opacity:1"
         id="path15" /><path
         d="M70,45c-0.277,0-0.633,0-1,0c0-0.007,0-0.014,0-0.021c-0.004-1.901-0.053-3.754-0.249-5.498    C68.117,41.514,66.242,43,64,43c-1.991,0-3.696-1.172-4.5-2.856C58.696,41.828,56.991,43,55,43s-3.696-1.172-4.5-2.856    C49.696,41.828,47.991,43,46,43c-2.242,0-4.117-1.486-4.751-3.519c-0.195,1.744-0.245,3.597-0.249,5.498c0,0.007,0,0.014,0,0.021    c-0.368,0-0.723,0-1,0c-1,0-2,1.111-2,2.222c0,3.091,0.864,7.13,4.178,7.703C44.62,64.027,50.396,67.465,55,69    c4.604-1.535,10.38-4.973,12.822-14.075C71.136,54.353,72,50.313,72,47.222C72,46.111,71,45,70,45z"
         style="fill:#f5c7b1;fill-opacity:1"
         id="path17" /><path
         d="M50.5,40.144C49.696,41.828,47.991,43,46,43c-2.242,0-4.117-1.486-4.751-3.519    c-0.195,1.744-0.245,3.597-0.249,5.498c0,0.007,0,0.014,0,0.021c-0.368,0-0.723,0-1,0c-1,0-2,1.111-2,2.222    c0,3.091,0.864,7.13,4.178,7.703C44.62,64.027,50.396,67.465,55,69V43C53.009,43,51.304,41.828,50.5,40.144z"
         style="fill:#f6d2c4;fill-opacity:1"
         id="path19" /><g
         id="g23"><path
           d="M50,58h10c0,0,0,3-5,3S50,58,50,58z"
           style="fill:#f78e8d;fill-opacity:1"
           id="path21" /></g><g
         id="g27"><path
           d="M45,67c0,1,4.465,15.848,10,20h-3c0,0-10-13-15-13C38,69,45,67,45,67z"
           style="fill:#FFFFFF;"
           id="path25" /></g><g
         id="g31"><path
           d="M65,67c0,1-4.465,15.848-10,20h3c0,0,10-13,15-13C72,69,65,67,65,67z"
           style="fill:#FFFFFF;"
           id="path29" /></g><g
         id="g35"><path
           d="M52.006,46.956c0-1.104-0.896-2-2-2c-0.002,0-0.004,0-0.006,0     c0.001,0.021,0.006,0.041,0.006,0.062c0,1.103-0.892,1.996-1.994,2c0.033,1.075,0.91,1.938,1.994,1.938     C51.111,48.956,52.006,48.06,52.006,46.956z"
           style="fill:#3E3E3F;"
           id="path33" /></g><g
         id="g39"><path
           d="M62,46.956c0-1.104-0.896-2-2-2c-0.002,0-0.004,0-0.006,0C59.995,44.977,60,44.997,60,45.018     c0,1.103-0.892,1.996-1.994,2c0.033,1.075,0.91,1.938,1.994,1.938C61.104,48.956,62,48.06,62,46.956z"
           style="fill:#3E3E3F;"
           id="path37" /></g><path
         d="M58.818,59.97h-7.637c-0.769,0-1.441,0.399-1.83,1H48c-2.075,0-6-1.254-6-6V45h-2.333    C37.089,45,35,47.089,35,49.667s2.089,4.667,4.667,4.667H40v0.636c0,5.87,4.784,8,8,8h1.162c0.324,0.799,1.105,1.364,2.02,1.364    h7.637c1.205,0,2.182-0.977,2.182-2.182C61,60.947,60.023,59.97,58.818,59.97z"
         style="fill:#3E3E3F;"
         id="path61" /></g></g></svg>