<?xml version="1.0" ?><!DOCTYPE svg  PUBLIC '-//W3C//DTD SVG 1.1//EN'  'http://www.w3.org/Graphics/SVG/1.1/DTD/svg11.dtd'><svg height="512px" id="Layer_1" style="enable-background:new 0 0 512 512;" version="1.1" viewBox="0 0 512 512" width="512px" xml:space="preserve" xmlns="http://www.w3.org/2000/svg" xmlns:xlink="http://www.w3.org/1999/xlink"><g><path d="M512,256.204C512,114.571,397.436,0,255.802,0   C114.571,0,0,114.571,0,256.204C0,397.429,114.571,512,255.802,512C397.436,512,512,397.429,512,256.204L512,256.204z" style="fill-rule:evenodd;clip-rule:evenodd;fill:#324A5E;"/><rect height="333.379" style="fill-rule:evenodd;clip-rule:evenodd;fill:#FFFFFF;" width="249.041" x="126.906" y="89.51"/><rect height="24.669" style="fill-rule:evenodd;clip-rule:evenodd;fill:#324A5E;" width="13.129" x="146" y="121.335"/><rect height="13.131" style="fill-rule:evenodd;clip-rule:evenodd;fill:#E6E9EE;" width="36.999" x="115.366" y="126.905"/><rect height="25.059" style="fill-rule:evenodd;clip-rule:evenodd;fill:#324A5E;" width="13.129" x="146" y="182.208"/><rect height="12.732" style="fill-rule:evenodd;clip-rule:evenodd;fill:#E6E9EE;" width="36.999" x="115.366" y="188.566"/><rect height="24.665" style="fill-rule:evenodd;clip-rule:evenodd;fill:#324A5E;" width="13.129" x="146" y="243.868"/><rect height="12.726" style="fill-rule:evenodd;clip-rule:evenodd;fill:#E6E9EE;" width="36.999" x="115.366" y="249.837"/><rect height="24.671" style="fill-rule:evenodd;clip-rule:evenodd;fill:#324A5E;" width="13.129" x="146" y="305.127"/><rect height="13.129" style="fill-rule:evenodd;clip-rule:evenodd;fill:#E6E9EE;" width="36.999" x="115.366" y="310.703"/><rect height="25.066" style="fill-rule:evenodd;clip-rule:evenodd;fill:#324A5E;" width="13.129" x="146" y="365.998"/><rect height="12.73" style="fill-rule:evenodd;clip-rule:evenodd;fill:#E6E9EE;" width="36.999" x="115.366" y="372.363"/><rect height="58.878" style="fill-rule:evenodd;clip-rule:evenodd;fill:#90DFAA;" width="20.678" x="375.947" y="178.623"/><rect height="58.878" style="fill-rule:evenodd;clip-rule:evenodd;fill:#FF7058;" width="20.678" x="375.947" y="243.47"/><rect height="58.879" style="fill-rule:evenodd;clip-rule:evenodd;fill:#54C0EB;" width="20.678" x="375.947" y="113.379"/></g></svg>