<?xml version="1.0" encoding="UTF-8" standalone="no"?>
<svg
   xmlns:dc="http://purl.org/dc/elements/1.1/"
   xmlns:cc="http://creativecommons.org/ns#"
   xmlns:rdf="http://www.w3.org/1999/02/22-rdf-syntax-ns#"
   xmlns:svg="http://www.w3.org/2000/svg"
   xmlns="http://www.w3.org/2000/svg"
   xmlns:sodipodi="http://sodipodi.sourceforge.net/DTD/sodipodi-0.dtd"
   xmlns:inkscape="http://www.inkscape.org/namespaces/inkscape"
   id="Layer_1"
   version="1.1"
   viewBox="0 0 85.271 114.521"
   xml:space="preserve"
   inkscape:version="0.92.1 r"
   sodipodi:docname="doc.svg"
   width="90.955734"
   height="122.15574"><metadata
     id="metadata25"><rdf:RDF><cc:Work
         rdf:about=""><dc:format>image/svg+xml</dc:format><dc:type
           rdf:resource="http://purl.org/dc/dcmitype/StillImage" /><dc:title></dc:title></cc:Work></rdf:RDF></metadata><defs
     id="defs23" /><sodipodi:namedview
     pagecolor="#ffffff"
     bordercolor="#666666"
     borderopacity="1"
     objecttolerance="10"
     gridtolerance="10"
     guidetolerance="10"
     inkscape:pageopacity="0"
     inkscape:pageshadow="2"
     inkscape:window-width="1366"
     inkscape:window-height="741"
     id="namedview21"
     showgrid="false"
     inkscape:zoom="2.914351"
     inkscape:cx="15.186792"
     inkscape:cy="38.753656"
     inkscape:window-x="0"
     inkscape:window-y="27"
     inkscape:window-maximized="1"
     inkscape:current-layer="g3"
     showborder="false"
     showguides="true"
     inkscape:guide-bbox="true"><sodipodi:guide
       position="44.06065,13.128727"
       orientation="0,1"
       id="guide824"
       inkscape:locked="false" /></sodipodi:namedview><g
     id="g3"><path
       d="M 11.271,114.521 H 74 c 6.225,0 11.271,-5.046 11.271,-11.271 V 39.656 L 45.568,0 H 11.271 C 5.046,0 0,5.046 0,11.271 v 91.979 c 0,6.225 5.046,11.271 11.271,11.271 z"
       style="opacity:1;fill:#f3dec5;fill-opacity:1"
       id="path5"
       inkscape:connector-curvature="0" /><path
       d="M 57.048,39.656 H 85.271 L 45.568,0 45.601,28.223 c 0.008,6.316 5.13,11.433 11.447,11.433 z"
       style="fill:#b4ad9b;fill-opacity:1"
       id="path15"
       inkscape:connector-curvature="0" /><path
       d="m 59.321,37.383 c 6.417,0.333 25.95,2.273 25.95,2.273 L 45.568,0 c 0,0 1.767,19.496 2.306,25.95 0.526,6.295 5.139,11.107 11.447,11.433 z"
       style="fill:#1e76d2;fill-opacity:1"
       id="path17"
       inkscape:connector-curvature="0" /><line
       style="fill:#fdffee"
       x1="85.271004"
       x2="45.568001"
       y1="39.655998"
       y2="0"
       id="line19" /><g
       aria-label="DOC"
       style="font-style:normal;font-variant:normal;font-weight:bold;font-stretch:normal;font-size:40px;line-height:125%;font-family:'Ostrich Sans';-inkscape-font-specification:'Ostrich Sans Bold';letter-spacing:0px;word-spacing:0px;fill:#1e76d2;fill-opacity:1;stroke:none;stroke-width:0.93749994px;stroke-linecap:butt;stroke-linejoin:miter;stroke-opacity:1"
       id="text822"
       transform="translate(-7.4380761e-7,0.445525)"><path
         d="m 25.58175,100.94675 c 4.8,0 7.04,-2.720003 7.04,-7.920003 v -11.12 c 0,-5.2 -2.24,-7.92 -7.04,-7.92 h -4.08 c -0.8,0 -1.44,0.64 -1.44,1.44 v 24.08 c 0,0.800003 0.64,1.440003 1.44,1.440003 z m 0,-23.000003 c 2.12,0 3,1.28 3,3.96 v 11.12 c 0,2.68 -0.88,3.96 -3,3.96 h -1.56 v -19.04 z"
         style="font-style:normal;font-variant:normal;font-weight:bold;font-stretch:normal;font-size:40px;font-family:'Ostrich Sans';-inkscape-font-specification:'Ostrich Sans Bold';fill:#1e76d2;fill-opacity:1;stroke-width:0.93749994px"
         id="path826"
         inkscape:connector-curvature="0" /><path
         d="m 35.91925,93.106747 c 0,3.16 0.88,5 2.12,6.24 1.32,1.280003 3,1.600003 4.44,1.600003 1.48,0 3.16,-0.32 4.48,-1.600003 1.24,-1.24 2.08,-3.08 2.08,-6.24 v -11.32 c 0,-5.08 -2.16,-7.8 -6.56,-7.8 -4.36,0 -6.56,2.76 -6.56,7.8 z m 4,-11.32 c 0,-2.6 0.8,-3.84 2.56,-3.84 1.72,0 2.56,1.16 2.56,3.84 v 11.32 c 0,2.72 -0.88,3.88 -2.56,3.88 -1.72,0 -2.56,-1.24 -2.56,-3.88 z"
         style="font-style:normal;font-variant:normal;font-weight:bold;font-stretch:normal;font-size:40px;font-family:'Ostrich Sans';-inkscape-font-specification:'Ostrich Sans Bold';fill:#1e76d2;fill-opacity:1;stroke-width:0.93749994px"
         id="path828"
         inkscape:connector-curvature="0" /><path
         d="m 52.08925,93.106747 c 0,3.16 0.88,5 2.12,6.24 1.32,1.280003 2.96,1.600003 4.48,1.600003 1.44,0 3.12,-0.32 4.44,-1.600003 1.24,-1.24 2.08,-3.08 2.08,-6.24 v -0.56 c 0,-0.8 -0.64,-1.44 -1.4,-1.44 h -1.16 c -0.8,0 -1.44,0.64 -1.44,1.44 v 0.56 c 0,1.44 -0.2,2.52 -0.68,3.16 -0.36,0.4 -1.08,0.72 -1.84,0.72 -1.72,0 -2.56,-1.2 -2.56,-3.88 v -11.32 c 0,-2.68 0.88,-3.84 2.56,-3.84 1.64,0 2.52,1.16 2.52,3.84 v 0.56 c 0,0.8 0.64,1.44 1.44,1.44 h 1.16 c 0.76,0 1.4,-0.64 1.4,-1.44 v -0.56 c 0,-3.04 -0.84,-5.04 -2.12,-6.24 -1.32,-1.2 -2.92,-1.56 -4.4,-1.56 -1.52,0 -3.12,0.36 -4.44,1.56 -1.28,1.2 -2.16,3.2 -2.16,6.24 z"
         style="font-style:normal;font-variant:normal;font-weight:bold;font-stretch:normal;font-size:40px;font-family:'Ostrich Sans';-inkscape-font-specification:'Ostrich Sans Bold';fill:#1e76d2;fill-opacity:1;stroke-width:0.93749994px"
         id="path830"
         inkscape:connector-curvature="0" /></g></g></svg>