<?xml version="1.0" encoding="UTF-8" standalone="no"?>
<svg
   xmlns:dc="http://purl.org/dc/elements/1.1/"
   xmlns:cc="http://creativecommons.org/ns#"
   xmlns:rdf="http://www.w3.org/1999/02/22-rdf-syntax-ns#"
   xmlns:svg="http://www.w3.org/2000/svg"
   xmlns="http://www.w3.org/2000/svg"
   xmlns:sodipodi="http://sodipodi.sourceforge.net/DTD/sodipodi-0.dtd"
   xmlns:inkscape="http://www.inkscape.org/namespaces/inkscape"
   id="Layer_1"
   style="enable-background:new 0 0 85.271 114.521;"
   version="1.1"
   viewBox="0 0 85.271 114.521"
   xml:space="preserve"
   inkscape:version="0.91 r13725"
   sodipodi:docname="1485510064_eps_extension_file_name-11.svg"><metadata
     id="metadata25"><rdf:RDF><cc:Work
         rdf:about=""><dc:format>image/svg+xml</dc:format><dc:type
           rdf:resource="http://purl.org/dc/dcmitype/StillImage" /></cc:Work></rdf:RDF></metadata><defs
     id="defs23" /><sodipodi:namedview
     pagecolor="#ffffff"
     bordercolor="#666666"
     borderopacity="1"
     objecttolerance="10"
     gridtolerance="10"
     guidetolerance="10"
     inkscape:pageopacity="0"
     inkscape:pageshadow="2"
     inkscape:window-width="1366"
     inkscape:window-height="741"
     id="namedview21"
     showgrid="false"
     inkscape:zoom="2.914351"
     inkscape:cx="5.85278"
     inkscape:cy="27.676295"
     inkscape:window-x="0"
     inkscape:window-y="27"
     inkscape:window-maximized="1"
     inkscape:current-layer="g3" /><g
     id="g3"><path
       d="M11.271,114.521H74c6.225,0,11.271-5.046,11.271-11.271V39.656L45.568,0L11.271,0   C5.046,0,0,5.046,0,11.271l0,91.979C0,109.475,5.046,114.521,11.271,114.521z"
       style="fill:#f3dec5;fill-opacity:1;opacity:1"
       id="path5" /><g
       id="g7"
       style="fill:#1d76d3;fill-opacity:1"><path
         d="M15.724,100.539V79.707c0-0.341,0.17-0.64,0.512-0.896c0.341-0.256,0.778-0.384,1.312-0.384h5.664    c2.282,0,4.106,0.587,5.472,1.76s2.048,3.029,2.048,5.568v8.736c0,2.539-0.683,4.395-2.048,5.568s-3.189,1.76-5.472,1.76h-5.664    c-0.534,0-0.971-0.128-1.312-0.384C15.894,101.178,15.724,100.88,15.724,100.539z M19.884,98.17h3.328    c2.24,0,3.36-1.227,3.36-3.68v-8.736c0-2.453-1.12-3.68-3.36-3.68h-3.328V98.17z"
         style="fill:#1d76d3;fill-opacity:1"
         id="path9" /><path
         d="M35.628,94.682v-8.928c0-2.539,0.677-4.395,2.032-5.568c1.354-1.173,3.173-1.76,5.456-1.76    s4.106,0.587,5.472,1.76c1.365,1.173,2.048,3.029,2.048,5.568v8.928c0,2.539-0.683,4.395-2.048,5.568    c-1.366,1.173-3.189,1.76-5.472,1.76s-4.102-0.586-5.456-1.76C36.305,99.077,35.628,97.221,35.628,94.682z M39.788,94.682    c0,2.454,1.109,3.68,3.328,3.68c2.24,0,3.36-1.227,3.36-3.68v-8.928c0-2.453-1.12-3.68-3.36-3.68c-2.219,0-3.328,1.227-3.328,3.68    V94.682z"
         style="fill:#1d76d3;fill-opacity:1"
         id="path11" /><path
         d="M55.563,94.682v-8.928c0-2.517,0.683-4.368,2.048-5.552c1.365-1.184,3.146-1.776,5.344-1.776    c2.24,0,4.069,0.555,5.488,1.664c1.418,1.109,2.128,2.582,2.128,4.416c0,0.79-0.16,1.328-0.48,1.616    c-0.32,0.288-0.854,0.432-1.6,0.432c-1.366,0-2.059-0.437-2.08-1.312c-0.021-0.277-0.048-0.517-0.08-0.72    c-0.032-0.203-0.117-0.469-0.256-0.8c-0.139-0.33-0.315-0.608-0.528-0.832c-0.214-0.224-0.534-0.416-0.96-0.576    c-0.427-0.16-0.928-0.24-1.504-0.24c-2.24,0-3.36,1.227-3.36,3.68v8.928c0,2.454,1.141,3.68,3.424,3.68    c0.683,0,1.253-0.106,1.712-0.32c0.458-0.213,0.789-0.517,0.992-0.912c0.203-0.395,0.341-0.747,0.416-1.056    c0.075-0.309,0.123-0.688,0.144-1.136c0.064-0.875,0.747-1.312,2.048-1.312c0.747,0,1.285,0.144,1.616,0.432    c0.331,0.288,0.496,0.827,0.496,1.616c0,1.92-0.709,3.456-2.128,4.608c-1.419,1.152-3.259,1.728-5.52,1.728    c-2.198,0-3.974-0.592-5.328-1.776C56.241,99.05,55.563,97.2,55.563,94.682z"
         style="fill:#1d76d3;fill-opacity:1"
         id="path13" /></g><path
       d="M57.048,39.656h28.223L45.568,0l0.033,28.223C45.609,34.539,50.731,39.656,57.048,39.656z"
       style="fill:#b4ad9b;fill-opacity:1"
       id="path15" /><path
       d="M59.321,37.383c6.417,0.333,25.95,2.273,25.95,2.273L45.568,0c0,0,1.767,19.496,2.306,25.95   C48.4,32.245,53.013,37.057,59.321,37.383z"
       style="fill:#1e76d2;fill-opacity:1"
       id="path17" /><line
       style="fill:#FDFFEE;"
       x1="85.271"
       x2="45.568"
       y1="39.656"
       y2="0"
       id="line19" /></g></svg>