<?xml version="1.0" encoding="UTF-8" standalone="no"?>
<svg
   xmlns:dc="http://purl.org/dc/elements/1.1/"
   xmlns:cc="http://creativecommons.org/ns#"
   xmlns:rdf="http://www.w3.org/1999/02/22-rdf-syntax-ns#"
   xmlns:svg="http://www.w3.org/2000/svg"
   xmlns="http://www.w3.org/2000/svg"
   xmlns:sodipodi="http://sodipodi.sourceforge.net/DTD/sodipodi-0.dtd"
   xmlns:inkscape="http://www.inkscape.org/namespaces/inkscape"
   id="Layer_1"
   style="enable-background:new 0 0 85.271 114.521;"
   version="1.1"
   viewBox="0 0 85.271 114.521"
   xml:space="preserve"
   inkscape:version="0.91 r13725"
   sodipodi:docname="1485510072_eps_extension_file_name-01.svg"><metadata
     id="metadata25"><rdf:RDF><cc:Work
         rdf:about=""><dc:format>image/svg+xml</dc:format><dc:type
           rdf:resource="http://purl.org/dc/dcmitype/StillImage" /></cc:Work></rdf:RDF></metadata><defs
     id="defs23" /><sodipodi:namedview
     pagecolor="#ffffff"
     bordercolor="#666666"
     borderopacity="1"
     objecttolerance="10"
     gridtolerance="10"
     guidetolerance="10"
     inkscape:pageopacity="0"
     inkscape:pageshadow="2"
     inkscape:window-width="1366"
     inkscape:window-height="741"
     id="namedview21"
     showgrid="false"
     inkscape:zoom="1.0303787"
     inkscape:cx="48.763384"
     inkscape:cy="68.797041"
     inkscape:window-x="0"
     inkscape:window-y="27"
     inkscape:window-maximized="1"
     inkscape:current-layer="g3" /><g
     id="g3"><path
       d="M11.271,114.521H74c6.225,0,11.271-5.046,11.271-11.271V39.656L45.568,0L11.271,0   C5.046,0,0,5.046,0,11.271l0,91.979C0,109.475,5.046,114.521,11.271,114.521z"
       style="fill:#f3dec5;fill-opacity:1"
       id="path5" /><g
       id="g7"
       style="fill:#e23644;fill-opacity:1"><path
         d="M16.636,100.506v-20.8c0-0.341,0.144-0.64,0.432-0.896c0.288-0.256,0.667-0.384,1.136-0.384h6.432    c2.197,0,3.957,0.582,5.28,1.744c1.322,1.163,1.984,2.981,1.984,5.456v0.192c0,2.496-0.688,4.331-2.064,5.504    c-1.376,1.174-3.195,1.76-5.456,1.76h-3.584v7.424c0,0.405-0.208,0.726-0.624,0.96c-0.416,0.235-0.901,0.352-1.456,0.352    c-0.576,0-1.067-0.117-1.472-0.352C16.839,101.232,16.636,100.912,16.636,100.506z M20.796,89.818h3.584    c1.066,0,1.893-0.309,2.48-0.928c0.586-0.618,0.88-1.536,0.88-2.752v-0.384c0-1.216-0.293-2.133-0.88-2.752    c-0.587-0.619-1.414-0.928-2.48-0.928h-3.584V89.818z"
         style="fill:#e23644;fill-opacity:1"
         id="path9" /><path
         d="M36.06,100.539V79.707c0-0.341,0.17-0.64,0.512-0.896c0.341-0.256,0.778-0.384,1.312-0.384h5.664    c2.282,0,4.106,0.587,5.472,1.76s2.048,3.029,2.048,5.568v8.736c0,2.539-0.683,4.395-2.048,5.568s-3.189,1.76-5.472,1.76h-5.664    c-0.534,0-0.971-0.128-1.312-0.384C36.23,101.178,36.06,100.88,36.06,100.539z M40.22,98.17h3.328c2.24,0,3.36-1.227,3.36-3.68    v-8.736c0-2.453-1.12-3.68-3.36-3.68H40.22V98.17z"
         style="fill:#e23644;fill-opacity:1"
         id="path11" /><path
         d="M56.22,100.506V79.738c0-0.405,0.181-0.725,0.544-0.96c0.363-0.234,0.789-0.352,1.28-0.352h11.168    c0.426,0,0.747,0.176,0.96,0.528c0.213,0.352,0.32,0.773,0.32,1.264c0,0.512-0.112,0.95-0.336,1.312    c-0.224,0.363-0.539,0.544-0.944,0.544H60.38v6.4h4.896c0.405,0,0.72,0.16,0.944,0.48c0.224,0.32,0.336,0.715,0.336,1.184    c0,0.427-0.112,0.8-0.336,1.12s-0.539,0.48-0.944,0.48H60.38v8.768c0,0.405-0.208,0.726-0.624,0.96    c-0.416,0.235-0.901,0.352-1.456,0.352c-0.576,0-1.067-0.117-1.472-0.352C56.422,101.232,56.22,100.912,56.22,100.506z"
         style="fill:#e23644;fill-opacity:1"
         id="path13" /></g><path
       d="M57.048,39.656h28.223L45.568,0l0.033,28.223C45.609,34.539,50.731,39.656,57.048,39.656z"
       style="fill:#b4ad9b;fill-opacity:1"
       id="path15" /><path
       d="M59.321,37.383c6.417,0.333,25.95,2.273,25.95,2.273L45.568,0c0,0,1.767,19.496,2.306,25.95   C48.4,32.245,53.013,37.057,59.321,37.383z"
       style="fill:#e23644;fill-opacity:1"
       id="path17" /><line
       style="fill:#FDFFEE;"
       x1="85.271"
       x2="45.568"
       y1="39.656"
       y2="0"
       id="line19" /></g></svg>