<?xml version="1.0" ?><!DOCTYPE svg  PUBLIC '-//W3C//DTD SVG 1.1//EN'  'http://www.w3.org/Graphics/SVG/1.1/DTD/svg11.dtd'><svg height="512px" id="Layer_1" style="enable-background:new 0 0 512 512;" version="1.1" viewBox="0 0 512 512" width="512px" xml:space="preserve" xmlns="http://www.w3.org/2000/svg" xmlns:xlink="http://www.w3.org/1999/xlink"><g><path d="M512,255.997C512,114.886,397.421,0,256.196,0   C114.569,0,0,114.886,0,255.997C0,397.525,114.569,512,256.196,512C397.421,512,512,397.525,512,255.997L512,255.997z" style="fill-rule:evenodd;clip-rule:evenodd;fill:#90DFAA;"/><path d="M256.196,123.621c-19.094,0-34.607-15.502-34.607-34.18   c0-19.076,15.514-34.582,34.607-34.582c18.702,0,34.211,15.506,34.211,34.582C290.407,108.119,274.898,123.621,256.196,123.621   L256.196,123.621z M256.196,42.932c-25.857,0-46.544,20.667-46.544,46.509c0,25.445,20.687,46.111,46.544,46.111   c25.461,0,46.151-20.667,46.151-46.111C302.348,63.599,281.657,42.932,256.196,42.932L256.196,42.932z" style="fill-rule:evenodd;clip-rule:evenodd;fill:#47413D;"/><path d="M183.398,290.183v143.112h-6.764   c-15.514,0-29.838-5.564-40.979-15.112c-13.927-11.529-22.279-29.014-22.279-48.096v-71.152c0-4.767,3.583-8.752,8.752-8.752   H183.398z" style="fill-rule:evenodd;clip-rule:evenodd;fill:#D29362;"/><path d="M399.814,298.935v71.152c0,19.082-8.355,36.566-22.277,48.096   l0,0c-11.144,9.548-25.465,15.112-40.979,15.112h-6.769V290.183h61.274C395.834,290.183,399.814,294.168,399.814,298.935   L399.814,298.935z" style="fill-rule:evenodd;clip-rule:evenodd;fill:#D29362;"/><path d="M404.583,301.712H107.408v-29.023   c0-7.544,6.367-13.91,14.321-13.91h268.533c7.956,0,14.32,6.366,14.32,13.91V301.712z" style="fill-rule:evenodd;clip-rule:evenodd;fill:#5BAA73;"/><rect height="5.16" style="fill-rule:evenodd;clip-rule:evenodd;fill:#75B198;" width="5.168" x="399.415" y="301.712"/><path d="M413.737,329.938L413.737,329.938   c-5.967-5.563-9.154-13.518-9.154-21.464v-6.763h-5.168v8.751c0,8.341,3.179,15.901,9.149,21.858l1.191,1.19   c0.799,0.79,1.991,1.192,3.184,0.79C414.534,333.512,414.93,331.524,413.737,329.938L413.737,329.938z" style="fill-rule:evenodd;clip-rule:evenodd;fill:#E08E58;"/><path d="M404.583,308.475L404.583,308.475v-17.101   c3.586,0,6.365,2.794,6.365,6.368v4.767C410.948,305.681,408.169,308.475,404.583,308.475L404.583,308.475z" style="fill-rule:evenodd;clip-rule:evenodd;fill:#883E2D;"/><path d="M107.408,308.475L107.408,308.475v-17.101   c-3.577,0-6.365,2.794-6.365,6.368v4.767C101.043,305.681,103.831,308.475,107.408,308.475L107.408,308.475z" style="fill-rule:evenodd;clip-rule:evenodd;fill:#883E2D;"/><path d="M98.26,329.938L98.26,329.938   c5.97-5.563,9.148-13.518,9.148-21.464v-6.763h5.175v8.751c0,8.341-3.181,15.901-9.148,21.858l-1.192,1.19   c-0.803,0.79-1.994,1.192-3.187,0.79C97.466,333.512,97.067,331.524,98.26,329.938L98.26,329.938z" style="fill-rule:evenodd;clip-rule:evenodd;fill:#E08E58;"/><path d="M379.921,168.146v239.698c0,3.574-0.798,7.166-2.384,10.338   l0,0c-3.981,9.154-13.134,15.112-23.479,15.112H157.935c-10.342,0-19.49-5.958-23.471-15.112   c-1.591-3.172-2.385-6.764-2.385-10.338V168.146c0-44.127,35.806-79.896,79.958-79.896h87.918   C344.116,88.25,379.921,124.02,379.921,168.146L379.921,168.146z" style="fill-rule:evenodd;clip-rule:evenodd;fill:#E6BE8B;"/><path d="M379.921,160.599v5.957c0,3.575-0.798,7.149-2.384,10.342l0,0   c-3.981,9.133-13.134,15.103-23.479,15.103H157.935c-10.342,0-19.49-5.97-23.471-15.103c-1.192-3.192-2.385-6.767-2.385-10.342l0,0   v-5.957c0-44.123,35.806-79.51,79.958-79.51l87.918-0.399C344.116,80.69,379.921,116.477,379.921,160.599L379.921,160.599z" style="fill-rule:evenodd;clip-rule:evenodd;fill:#5BAA73;"/><path d="M372.363,162.982v3.18v0.395l0,0   c-0.398-42.138-34.612-76.322-76.38-76.322h-83.946c-30.234,0-56.488,17.49-68.823,42.935c-1.986,4.368-3.577,8.341-4.77,13.119   c-1.199,4.368-2.391,9.134-2.788,13.916c0.397-5.576,1.192-11.135,2.385-16.299c1.199-3.985,2.391-7.958,4.379-11.533   c11.538-27.031,38.587-45.713,69.617-45.713h83.946C338.146,86.66,372.363,120.844,372.363,162.982L372.363,162.982z" style="fill-rule:evenodd;clip-rule:evenodd;fill:#47413D;"/><path d="M148.389,155.422l-2.391,1.191   c-0.797,0.797-1.988,0-2.784-1.191l-4.371-10.325l-0.398-1.192l2.385-6.368l8.354,14.709   C149.581,153.438,149.581,155.028,148.389,155.422L148.389,155.422z" style="fill-rule:evenodd;clip-rule:evenodd;fill:#47413D;"/><path d="M143.214,144.699l1.192,2.382   c0.398,1.192,0.398,1.989-0.396,2.383l0,0c-0.796,0.399-1.59,0-2.385-0.793l-1.193-2.383c-0.396-1.191,0-1.984,0.397-2.383l0,0   C141.625,143.495,142.817,143.905,143.214,144.699L143.214,144.699z" style="fill-rule:evenodd;clip-rule:evenodd;fill:#DCDFE1;"/><path d="M197.72,269.517L197.72,269.517   c-5.173,0-9.155-4.372-9.155-9.547c0-58.835,0-95.397,0-154.233c5.969-1.984,11.939-3.176,18.703-3.575   c0,60.027,0,97.781,0,157.808C207.268,265.145,202.888,269.517,197.72,269.517L197.72,269.517z" style="fill-rule:evenodd;clip-rule:evenodd;fill:#47413D;"/><path d="M312.688,269.517L312.688,269.517   c5.174,0,9.149-4.372,9.149-9.547v-69.16l0,0v-64.008c-5.971-1.59-12.336-2.383-18.696-2.782v66.79l0,0v69.16   C303.142,265.145,307.513,269.517,312.688,269.517L312.688,269.517z" style="fill-rule:evenodd;clip-rule:evenodd;fill:#47413D;"/><path d="M209.652,253.614H186.18c-3.583,0-6.364-2.777-6.364-6.368   v-7.149c0-3.571,2.781-6.352,6.364-6.352h23.473c3.187,0,5.969,2.781,5.969,6.352v7.149   C215.621,250.836,212.839,253.614,209.652,253.614L209.652,253.614z" style="fill-rule:evenodd;clip-rule:evenodd;fill:#A87E2B;"/><path d="M209.652,250.04H186.18c-3.583,0-6.364-2.794-6.364-5.97   v-7.544c0-3.192,2.781-5.974,6.364-5.974h23.473c3.187,0,5.969,2.781,5.969,5.974v7.544   C215.621,247.246,212.839,250.04,209.652,250.04L209.652,250.04z" style="fill-rule:evenodd;clip-rule:evenodd;fill:#E9A820;"/><path d="M213.632,252.028c-1.994-0.798-3.979-1.192-5.968-1.989h1.988   c3.187,0,5.969-2.794,5.969-5.97v3.176C215.621,249.247,214.824,250.836,213.632,252.028L213.632,252.028z" style="fill-rule:evenodd;clip-rule:evenodd;fill:#A5762A;"/><path d="M325.818,253.614h-23.075c-3.582,0-6.365-2.777-6.365-6.368   v-7.149c0-3.571,2.783-6.352,6.365-6.352h23.075c3.577,0,6.365,2.781,6.365,6.352v7.149   C332.184,250.836,329.396,253.614,325.818,253.614L325.818,253.614z" style="fill-rule:evenodd;clip-rule:evenodd;fill:#A87E2B;"/><path d="M325.818,250.04h-23.075c-3.582,0-6.365-2.794-6.365-5.97   v-7.544c0-3.192,2.783-5.974,6.365-5.974h23.075c3.577,0,6.365,2.781,6.365,5.974v7.544   C332.184,247.246,329.396,250.04,325.818,250.04L325.818,250.04z" style="fill-rule:evenodd;clip-rule:evenodd;fill:#E9A820;"/><path d="M330.189,252.028c-1.986-0.798-3.977-1.192-5.966-1.989h1.595   c3.577,0,6.365-2.794,6.365-5.97v3.176C332.184,249.247,331.39,250.836,330.189,252.028L330.189,252.028z" style="fill-rule:evenodd;clip-rule:evenodd;fill:#A5762A;"/><path d="M188.564,192.001V84.277   c5.969-1.603,12.336-2.794,18.703-3.188v110.912H188.564z" style="fill-rule:evenodd;clip-rule:evenodd;fill:#47413D;"/><path d="M321.838,192.001v-1.191l0,0V83.866   c-5.971-1.586-12.336-2.777-18.696-2.777V190.81l0,0v1.191H321.838z" style="fill-rule:evenodd;clip-rule:evenodd;fill:#47413D;"/><path d="M315.074,274.282H197.317c-12.33,0-22.278,9.942-22.278,22.269   v91.03c0,12.326,9.948,22.253,22.278,22.253h117.757c12.331,0,21.879-9.927,21.879-22.253v-91.03   C336.953,284.225,327.405,274.282,315.074,274.282L315.074,274.282z" style="fill-rule:evenodd;clip-rule:evenodd;fill:#D29362;"/><path d="M175.039,370.49v17.091c0,12.326,9.948,22.253,22.278,22.253   h117.757c12.331,0,21.879-9.927,21.879-22.253V370.49l0,0H175.039z" style="fill-rule:evenodd;clip-rule:evenodd;fill:#8E4B3D;"/><path d="M331.789,310.463L331.789,310.463   c0,1.586-1.6,2.777-3.191,2.777H183.398c-1.596,0-2.788-1.191-2.788-2.777c0-1.988,1.192-3.18,2.788-3.18h145.199   C330.189,307.283,331.789,308.475,331.789,310.463L331.789,310.463z" style="fill-rule:evenodd;clip-rule:evenodd;fill:#47413D;"/><path d="M195.329,335.896h-6.368c-2.384,0-4.768-1.988-4.37-4.766   l1.986-21.062v-2.785h11.143v2.785l1.988,21.062C199.708,333.907,197.72,335.896,195.329,335.896L195.329,335.896z" style="fill-rule:evenodd;clip-rule:evenodd;fill:#47413D;"/><path d="M195.726,313.24v5.169c0,1.98-1.589,3.582-3.577,3.582l0,0   c-1.994,0-3.584-1.602-3.584-3.582v-5.169c0-1.979,1.59-3.574,3.584-3.574l0,0C194.137,309.666,195.726,311.261,195.726,313.24   L195.726,313.24z" style="fill-rule:evenodd;clip-rule:evenodd;fill:#DCDFE1;"/><path d="M271.707,401.493h-31.425c-2.384,0-4.77-1.988-4.77-4.766   v-13.123c0-2.391,2.386-4.379,4.77-4.379l31.425-0.396c2.792,0,4.777,2.385,4.777,4.775v13.123   C276.484,399.505,274.499,401.493,271.707,401.493L271.707,401.493z" style="fill-rule:evenodd;clip-rule:evenodd;fill:#E9A820;"/><rect height="9.532" style="fill-rule:evenodd;clip-rule:evenodd;fill:#FEFEFE;" width="25.061" x="243.866" y="385.198"/><polygon points="243.866,385.198 243.866,394.73 245.458,394.73    245.458,387.179 267.336,387.179 267.336,394.73 268.927,394.73 268.927,385.198  " style="fill-rule:evenodd;clip-rule:evenodd;fill:#47413D;"/><path d="M290.407,153.039L290.407,153.039   c0,0.797-0.789,1.191-1.587,1.191h-65.643c-0.796,0-1.192-0.395-1.192-1.191c0-0.793,0.396-1.586,1.192-1.586h65.643   C289.618,151.453,290.407,152.246,290.407,153.039L290.407,153.039z" style="fill-rule:evenodd;clip-rule:evenodd;fill:#47413D;"/><path d="M228.749,164.572h-3.187c-1.192,0-1.987-1.192-1.987-2.383   l1.191-9.544v-1.191h4.778v1.191l1.192,9.544C230.737,163.38,229.941,164.572,228.749,164.572L228.749,164.572z" style="fill-rule:evenodd;clip-rule:evenodd;fill:#47413D;"/><path d="M228.749,154.23v2.383c0,0.797-0.796,1.59-1.597,1.59l0,0   c-0.794,0-1.59-0.793-1.59-1.59v-2.383c0-0.793,0.796-1.586,1.59-1.586l0,0C227.953,152.645,228.749,153.438,228.749,154.23   L228.749,154.23z" style="fill-rule:evenodd;clip-rule:evenodd;fill:#DCDFE1;"/></g></svg>