<?xml version="1.0" encoding="UTF-8" standalone="no"?>
<svg
   xmlns:dc="http://purl.org/dc/elements/1.1/"
   xmlns:cc="http://creativecommons.org/ns#"
   xmlns:rdf="http://www.w3.org/1999/02/22-rdf-syntax-ns#"
   xmlns:svg="http://www.w3.org/2000/svg"
   xmlns="http://www.w3.org/2000/svg"
   xmlns:sodipodi="http://sodipodi.sourceforge.net/DTD/sodipodi-0.dtd"
   xmlns:inkscape="http://www.inkscape.org/namespaces/inkscape"
   id="Layer_1"
   version="1.1"
   viewBox="0 0 85.271 114.521"
   xml:space="preserve"
   inkscape:version="0.92.1 r"
   sodipodi:docname="zip.svg"
   width="90.955734"
   height="122.15574"><metadata
     id="metadata25"><rdf:RDF><cc:Work
         rdf:about=""><dc:format>image/svg+xml</dc:format><dc:type
           rdf:resource="http://purl.org/dc/dcmitype/StillImage" /><dc:title></dc:title></cc:Work></rdf:RDF></metadata><defs
     id="defs23" /><sodipodi:namedview
     pagecolor="#ffffff"
     bordercolor="#666666"
     borderopacity="1"
     objecttolerance="10"
     gridtolerance="10"
     guidetolerance="10"
     inkscape:pageopacity="0"
     inkscape:pageshadow="2"
     inkscape:window-width="1366"
     inkscape:window-height="741"
     id="namedview21"
     showgrid="false"
     inkscape:zoom="4.1215147"
     inkscape:cx="3.9984741"
     inkscape:cy="68.30141"
     inkscape:window-x="0"
     inkscape:window-y="27"
     inkscape:window-maximized="1"
     inkscape:current-layer="g3"
     showborder="false"
     showguides="true"
     inkscape:guide-bbox="true"><sodipodi:guide
       position="44.06065,13.128727"
       orientation="0,1"
       id="guide824"
       inkscape:locked="false" /></sodipodi:namedview><g
     id="g3"><path
       d="M 11.271,114.521 H 74 c 6.225,0 11.271,-5.046 11.271,-11.271 V 39.656 L 45.568,0 H 11.271 C 5.046,0 0,5.046 0,11.271 v 91.979 c 0,6.225 5.046,11.271 11.271,11.271 z"
       style="opacity:1;fill:#f3dec5;fill-opacity:1"
       id="path5"
       inkscape:connector-curvature="0" /><path
       d="M 57.048,39.656 H 85.271 L 45.568,0 45.601,28.223 c 0.008,6.316 5.13,11.433 11.447,11.433 z"
       style="fill:#b4ad9b;fill-opacity:1"
       id="path15"
       inkscape:connector-curvature="0" /><path
       d="m 59.321,37.383 c 6.417,0.333 25.95,2.273 25.95,2.273 L 45.568,0 c 0,0 1.767,19.496 2.306,25.95 0.526,6.295 5.139,11.107 11.447,11.433 z"
       style="fill:#6c5d53;fill-opacity:1"
       id="path17"
       inkscape:connector-curvature="0" /><line
       style="fill:#fdffee"
       x1="85.271004"
       x2="45.568001"
       y1="39.655998"
       y2="0"
       id="line19" /><g
       aria-label="ZIP"
       style="font-style:normal;font-variant:normal;font-weight:900;font-stretch:normal;font-size:40px;line-height:125%;font-family:'Ostrich Sans';-inkscape-font-specification:'Ostrich Sans Heavy';letter-spacing:0px;word-spacing:0px;fill:#6c5d53;fill-opacity:1;stroke:none;stroke-width:0.93749994px;stroke-linecap:butt;stroke-linejoin:miter;stroke-opacity:1"
       id="text835"
       transform="translate(5.5700853,-0.57056132)"><path
         d="m 32.501039,76.455327 c 0,-0.8 -0.64,-1.44 -1.44,-1.44 h -10.64 c -0.8,0 -1.44,0.64 -1.44,1.44 v 1.08 c 0,0.8 0.64,1.44 1.44,1.44 h 7.2 l -8.44,20.16 v 1.400003 c 0,0.8 0.64,1.44 1.4,1.44 h 10.32 c 0.76,0 1.44,-0.64 1.44,-1.44 v -1.080003 c 0,-0.8 -0.68,-1.44 -1.44,-1.44 h -6.88 l 8.48,-20.2 z"
         style="font-style:normal;font-variant:normal;font-weight:900;font-stretch:normal;font-size:40px;font-family:'Ostrich Sans';-inkscape-font-specification:'Ostrich Sans Heavy';fill:#6c5d53;fill-opacity:1;stroke-width:0.93749994px"
         id="path843"
         inkscape:connector-curvature="0" /><path
         d="m 39.587289,76.455327 c 0,-0.8 -0.68,-1.44 -1.44,-1.44 h -1.12 c -0.8,0 -1.44,0.64 -1.44,1.44 v 24.080003 c 0,0.8 0.64,1.44 1.44,1.44 h 1.12 c 0.76,0 1.44,-0.64 1.44,-1.44 z"
         style="font-style:normal;font-variant:normal;font-weight:900;font-stretch:normal;font-size:40px;font-family:'Ostrich Sans';-inkscape-font-specification:'Ostrich Sans Heavy';fill:#6c5d53;fill-opacity:1;stroke-width:0.93749994px"
         id="path845"
         inkscape:connector-curvature="0" /><path
         d="m 48.109789,90.455327 c 4.88,0 7.04,-2.56 7.04,-7.72 0,-5.16 -2.16,-7.72 -7.04,-7.72 h -4.32 c -0.8,0 -1.44,0.64 -1.44,1.44 v 24.080003 c 0,0.8 0.64,1.44 1.44,1.44 h 1.12 c 0.76,0 1.4,-0.64 1.4,-1.44 V 90.455327 Z m 0,-11.48 c 2.16,0 3.04,1.08 3.04,3.76 0,2.6 -0.88,3.76 -3.04,3.76 h -1.8 v -7.52 z"
         style="font-style:normal;font-variant:normal;font-weight:900;font-stretch:normal;font-size:40px;font-family:'Ostrich Sans';-inkscape-font-specification:'Ostrich Sans Heavy';fill:#6c5d53;fill-opacity:1;stroke-width:0.93749994px"
         id="path847"
         inkscape:connector-curvature="0" /></g></g></svg>