<?xml version="1.0" encoding="UTF-8" standalone="no"?>
<svg
   xmlns:dc="http://purl.org/dc/elements/1.1/"
   xmlns:cc="http://creativecommons.org/ns#"
   xmlns:rdf="http://www.w3.org/1999/02/22-rdf-syntax-ns#"
   xmlns:svg="http://www.w3.org/2000/svg"
   xmlns="http://www.w3.org/2000/svg"
   xmlns:sodipodi="http://sodipodi.sourceforge.net/DTD/sodipodi-0.dtd"
   xmlns:inkscape="http://www.inkscape.org/namespaces/inkscape"
   height="190.5"
   version="1.0"
   viewBox="0 0 190.5 190.5"
   width="190.5"
   xml:space="preserve"
   id="svg74"
   sodipodi:docname="female-speaker-square.svg"
   inkscape:version="0.92.1 r"><metadata
     id="metadata80"><rdf:RDF><cc:Work
         rdf:about=""><dc:format>image/svg+xml</dc:format><dc:type
           rdf:resource="http://purl.org/dc/dcmitype/StillImage" /><dc:title></dc:title></cc:Work></rdf:RDF></metadata><defs
     id="defs78" /><sodipodi:namedview
     pagecolor="#ffffff"
     bordercolor="#666666"
     borderopacity="1"
     objecttolerance="10"
     gridtolerance="10"
     guidetolerance="10"
     inkscape:pageopacity="0"
     inkscape:pageshadow="2"
     inkscape:window-width="1366"
     inkscape:window-height="708"
     id="namedview76"
     showgrid="false"
     fit-margin-top="0"
     fit-margin-left="0"
     fit-margin-right="0"
     fit-margin-bottom="0"
     inkscape:pagecheckerboard="false"
     inkscape:zoom="1.4142136"
     inkscape:cx="40.135878"
     inkscape:cy="122.28245"
     inkscape:window-x="0"
     inkscape:window-y="0"
     inkscape:window-maximized="1"
     inkscape:current-layer="g4538" /><g
     id="Artboard"
     transform="translate(-38.67234,107.11538)" /><g
     id="Multicolor"
     transform="translate(-65.698201,99.864539)"><g
       id="g71"
       transform="translate(26.879958,3.635455)"><g
         id="g4538"
         transform="matrix(2.7214286,0,0,2.7214286,-15.610329,-149.76428)"><rect
           style="fill:#ed8787;fill-opacity:1;stroke-width:0.87292612"
           id="rect4623"
           width="70"
           height="70"
           x="20"
           y="17" /><g
           id="g15"><g
             id="g9"><path
               inkscape:connector-curvature="0"
               id="path7"
               style="fill:#0484ab"
               d="m 55,70 -7,-1 -16.241,3.872 c -2.371,0.711 -4.279,2.48 -5.168,4.791 L 23,87 h 32 z" /></g><g
             id="g13"><path
               inkscape:connector-curvature="0"
               id="path11"
               style="fill:#0484ab"
               d="m 55,70 7,-1 16.241,3.872 c 2.371,0.711 4.279,2.48 5.168,4.791 L 87,87 H 55 Z" /></g></g><path
           inkscape:connector-curvature="0"
           id="path17"
           style="fill:#f4d0a1"
           d="M 55,68.371 C 51.716,67.277 47.841,65.2 45,60.803 v 13.586 c 0,1.725 0.329,3.434 0.97,5.035 L 49,87 h 12 l 3.03,-7.576 C 64.671,77.823 65,76.114 65,74.389 V 60.803 c -2.841,4.397 -6.716,6.474 -10,7.568 z" /><path
           inkscape:connector-curvature="0"
           id="path19"
           style="fill:#f8e1c2"
           d="m 45,60.803 v 13.586 c 0,1.725 0.329,3.434 0.97,5.035 L 49,87 h 6 V 68.371 C 51.716,67.277 47.841,65.2 45,60.803 Z" /><g
           id="g23"><path
             inkscape:connector-curvature="0"
             id="path21"
             style="fill:#ffffff"
             d="M 54.977,83 C 52.09,83 49.372,82.613 46.954,81.942 L 48.977,87 h 12 L 63,81.942 C 60.582,82.613 57.863,83 54.977,83 Z" /></g><g
           id="g27"><path
             inkscape:connector-curvature="0"
             id="path25"
             style="fill:#21b2d1"
             d="m 43,87 h 6 L 45.97,79.424 C 45.329,77.823 45,76.114 45,74.389 V 67 c -2,2 -4,4 -6,7 l 4,2 -5,5 z" /></g><g
           id="g31"><path
             inkscape:connector-curvature="0"
             id="path29"
             style="fill:#21b2d1"
             d="m 67,87 h -6 l 3.03,-7.576 C 64.671,77.823 65,76.114 65,74.389 V 67 c 2,2 4,4 6,7 l -4,2 5,5 z" /></g><path
           inkscape:connector-curvature="0"
           id="path45"
           style="fill:#f8e1c2"
           d="m 70,44.371 c -0.277,0 -0.633,0 -1,0 0,-0.007 0,-0.014 0,-0.021 -0.018,-9.008 -1.024,-16.979 -14,-16.979 -12.976,0 -13.982,7.971 -14,16.979 0,0.007 0,0.014 0,0.021 -0.368,0 -0.723,0 -1,0 -1,0 -2,1.111 -2,2.222 0,3.091 0.864,7.13 4.178,7.703 C 44.62,63.398 50.396,66.837 55,68.371 59.604,66.837 65.38,63.398 67.822,54.296 71.136,53.724 72,49.684 72,46.593 72,45.482 71,44.371 70,44.371 Z" /><path
           inkscape:connector-curvature="0"
           id="path47"
           style="fill:#fcf1e2"
           d="m 41,44.35 c 0,0.007 0,0.014 0,0.021 -0.368,0 -0.723,0 -1,0 -1,0 -2,1.111 -2,2.222 0,3.091 0.864,7.13 4.178,7.703 2.442,9.102 8.218,12.541 12.822,14.075 v -41 c -12.976,0 -13.982,7.971 -14,16.979 z" /><g
           id="g53"><g
             id="g51"><path
               inkscape:connector-curvature="0"
               id="path49"
               style="fill:#3e3e3f"
               d="m 48.964,45.866 c 1.43,0 2.627,0.277 2.959,1.134 0.004,-1 -1.003,-2.446 -2.959,-2.446 -1.953,0 -3.053,1.446 -2.959,2.446 0.332,-0.856 1.529,-1.134 2.959,-1.134 z" /></g></g><g
           id="g59"><g
             id="g57"><path
               inkscape:connector-curvature="0"
               id="path55"
               style="fill:#3e3e3f"
               d="m 60.887,45.866 c 1.43,0 2.627,0.277 2.959,1.134 0.004,-1 -1.003,-2.446 -2.959,-2.446 -1.953,0 -3.053,1.446 -2.959,2.446 0.332,-0.856 1.529,-1.134 2.959,-1.134 z" /></g></g><g
           transform="translate(0,-0.197)"
           id="g63"><path
             inkscape:connector-curvature="0"
             id="path61"
             style="fill:#3e3e3f"
             d="M 65,61 C 76,66 73.074,78.046 79,87 66,81 65,75 65,67 c 0,0 0,-5 0,-6 z" /></g><path
           inkscape:connector-curvature="0"
           id="path65"
           style="fill:#3e3e3f"
           d="M 50.084,27.346 C 49.81,27.17 49.458,27.042 49,27 38,26 37.069,40.548 40.994,44.606 42.784,44.065 49.362,38.803 50.729,32.803 54.228,39.733 69.254,45.09 69,45 79.845,26.302 51.823,19.426 50.084,27.346 Z" /><g
           id="g69"><path
             inkscape:connector-curvature="0"
             id="path67"
             style="fill:#f79392"
             d="m 50,57.371 h 10 c 0,0 0,3 -5,3 -5,0 -5,-3 -5,-3 z" /></g></g></g></g></svg>