<?xml version="1.0" encoding="UTF-8" standalone="no"?>
<svg
   xmlns:dc="http://purl.org/dc/elements/1.1/"
   xmlns:cc="http://creativecommons.org/ns#"
   xmlns:rdf="http://www.w3.org/1999/02/22-rdf-syntax-ns#"
   xmlns:svg="http://www.w3.org/2000/svg"
   xmlns="http://www.w3.org/2000/svg"
   xmlns:sodipodi="http://sodipodi.sourceforge.net/DTD/sodipodi-0.dtd"
   xmlns:inkscape="http://www.inkscape.org/namespaces/inkscape"
   height="70"
   version="1.0"
   viewBox="0 0 91.863518 70"
   width="91.863518"
   xml:space="preserve"
   id="svg68"
   sodipodi:docname="1492153621_Man-14.svg"
   inkscape:version="0.92.0 r"><metadata
     id="metadata74"><rdf:RDF><cc:Work
         rdf:about=""><dc:format>image/svg+xml</dc:format><dc:type
           rdf:resource="http://purl.org/dc/dcmitype/StillImage" /><dc:title></dc:title></cc:Work></rdf:RDF></metadata><defs
     id="defs72" /><sodipodi:namedview
     pagecolor="#ffffff"
     bordercolor="#666666"
     borderopacity="1"
     objecttolerance="10"
     gridtolerance="10"
     guidetolerance="10"
     inkscape:pageopacity="0"
     inkscape:pageshadow="2"
     inkscape:window-width="1366"
     inkscape:window-height="708"
     id="namedview70"
     showgrid="false"
     fit-margin-top="0"
     fit-margin-left="0"
     fit-margin-right="0"
     fit-margin-bottom="0"
     inkscape:zoom="2"
     inkscape:cx="-52.104482"
     inkscape:cy="91.30298"
     inkscape:window-x="0"
     inkscape:window-y="0"
     inkscape:window-maximized="1"
     inkscape:current-layer="Multicolor" /><g
     id="Artboard"
     transform="translate(-5.1399889,-19.607008)" /><g
     id="Multicolor"
     transform="matrix(1.0149811,0,0,1.0149811,-5.1396294,-21.255286)"><rect
       y="20.941557"
       x="5.0637684"
       height="68.966805"
       width="90.507614"
       id="rect4623"
       style="fill:#ea7373;fill-opacity:1;stroke-width:0.98524004" /><path
       inkscape:connector-curvature="0"
       id="path7"
       style="fill:#f8e1c2;fill-opacity:1"
       d="m 66.047576,48.09736 c -1.709,0.95 -1.73,1.921 -1.73,3.64 v 1.171 h -2 v -11.994 c -3.686,0.886 -7.934,1.284 -12,1.042 v 0.012 c -4,-0.232 -8.748,-1.22 -12,-3.536 v 14.476 h -2 v 2.997 l 4,10 5.105,3.996 c 0.569,0.639 1.384,1.004 2.24,1.004 h 2.655 2.655 c 0.856,0 1.671,-0.365 2.24,-1.004 l 5.105,-3.996 3.207,-8.017 c 2.835,-0.204 3.793,-4.504 3.793,-7.758 0,-0.834 -0.564,-1.669 -1.27,-2.033 z" /><path
       inkscape:connector-curvature="0"
       id="path9"
       style="fill:#f4d0a1;fill-opacity:1"
       d="m 52.972576,70.90536 h -2.655 -2.655 c -0.856,0 -1.671,-0.365 -2.24,-1.004 l -5.105,-3.996 v 4.003 l 9.996,8 c 0.001,0 0.002,0 0.004,0 0.002,0 0.002,0 0.004,0 l 9.996,-8 v -4.003 l -5.105,3.996 c -0.569,0.639 -1.384,1.004 -2.24,1.004 z" /><path
       inkscape:connector-curvature="0"
       id="path11"
       style="fill:#f8e1c2;fill-opacity:1"
       d="m 45.422576,69.90136 -5.105,-3.996 v 4 l 9.996,8 c 0.001,0 0.002,0 0.004,0 v -7 h -2.655 c -0.856,0 -1.671,-0.365 -2.24,-1.004 z" /><path
       inkscape:connector-curvature="0"
       id="path13"
       style="fill:#fcf1e2;fill-opacity:1"
       d="m 38.317576,52.90836 h -2 v -1.171 c 0,-1.719 -0.021,-2.69 -1.73,-3.639 -0.706,0.363 -1.27,1.198 -1.27,2.032 0,3.253 0.958,7.554 3.793,7.758 l 3.207,8.017 5.105,3.996 c 0.569,0.639 1.384,1.004 2.24,1.004 h 2.655 v -28.938 c -4.597,-0.27 -8.957,-1.367 -12,-3.536 z" /><g
       id="g17"
       transform="translate(-4.6824244,2.9083599)"><polygon
         id="polygon15"
         style="fill:#ffffff"
         points="43,67.997 49.192,77.803 55,87 60.808,77.803 67,67.997 65,66.997 55,75 45,66.997 " /></g><g
       id="g21"
       transform="translate(-4.6824244,2.9083599)"><path
         inkscape:connector-curvature="0"
         id="path19"
         style="fill:#f79392"
         d="m 50,56.997 h 10 c 0,0 0,3 -5,3 -5,0 -5,-3 -5,-3 z" /></g><g
       style="fill:#654444;fill-opacity:1"
       id="g25"
       transform="translate(-4.6824244,2.9083599)"><path
         inkscape:connector-curvature="0"
         id="path23"
         style="fill:#654444;fill-opacity:1"
         d="m 23,87 4,-11 c 0.615,-1.333 1.698,-2.394 3.043,-2.983 L 43,68 55,87 Z" /></g><g
       style="fill:#654444;fill-opacity:1"
       id="g29"
       transform="translate(-4.6824244,2.9083599)"><path
         inkscape:connector-curvature="0"
         id="path27"
         style="fill:#654444;fill-opacity:1"
         d="M 87,87 83,76 C 82.385,74.667 81.302,73.606 79.957,73.017 L 67,68 55,87 Z" /></g><g
       style="fill:#6ab2b8;fill-opacity:1"
       id="g33"
       transform="translate(-4.6824244,2.9083599)"><polygon
         id="polygon31"
         style="fill:#6ab2b8;fill-opacity:1"
         points="55,87 53.509,84.639 43,68 40,69 51,87 " /></g><g
       style="fill:#6ab2b8;fill-opacity:1"
       id="g37"
       transform="translate(-4.6824244,2.9083599)"><polygon
         id="polygon35"
         style="fill:#6ab2b8;fill-opacity:1"
         points="55,87 56.491,84.639 67,68 70,69 59,87 " /></g><path
       inkscape:connector-curvature="0"
       id="path39"
       style="fill:#dd2e2e;fill-opacity:1"
       d="m 59.317576,75.90836 -6.73,3.059 c -0.55,-0.643 -1.357,-1.059 -2.27,-1.059 -0.913,0 -1.72,0.416 -2.27,1.059 l -6.73,-3.059 v 10 l 6.73,-3.059 c 0.55,0.643 1.357,1.059 2.27,1.059 0.913,0 1.72,-0.416 2.27,-1.059 l 6.73,3.059 z" /><g
       id="g43"
       transform="translate(-4.6824244,2.9083599)"><path
         inkscape:connector-curvature="0"
         id="path41"
         style="fill:#3e3e3f"
         d="m 61.5,41 c -1.537,0 -2.925,0.632 -3.923,1.648 -1.618,-0.831 -3.536,-0.831 -5.153,0 C 51.425,41.632 50.037,41 48.5,41 45.462,41 43,43.462 43,46.5 c 0,3.038 2.462,5.5 5.5,5.5 3.038,0 5.5,-2.462 5.5,-5.5 0,-0.886 -0.214,-1.72 -0.586,-2.461 1.01,-0.442 2.163,-0.442 3.173,0 C 56.214,44.78 56,45.614 56,46.5 56,49.538 58.462,52 61.5,52 64.538,52 67,49.538 67,46.5 67,43.462 64.538,41 61.5,41 Z" /></g><g
       id="g47"
       transform="translate(-4.6824244,2.9083599)"><circle
         id="circle45"
         style="fill:#9ce5f4"
         r="3.5"
         cy="46.5"
         cx="48.5" /></g><g
       id="g51"
       transform="translate(-4.6824244,2.9083599)"><circle
         id="circle49"
         style="fill:#9ce5f4"
         r="3.5"
         cy="46.5"
         cx="61.5" /></g><g
       id="g55"
       transform="translate(-4.6824244,2.9083599)"><path
         inkscape:connector-curvature="0"
         id="path53"
         style="fill:#c9f2f8"
         d="m 48.5,43 c -1.933,0 -3.5,1.567 -3.5,3.5 0,0.992 0.417,1.883 1.08,2.521 l 4.94,-4.94 C 50.383,43.417 49.492,43 48.5,43 Z" /></g><g
       id="g59"
       transform="translate(-4.6824244,2.9083599)"><path
         inkscape:connector-curvature="0"
         id="path57"
         style="fill:#c9f2f8"
         d="m 61.479,43 c -1.933,0 -3.5,1.567 -3.5,3.5 0,0.992 0.417,1.883 1.08,2.521 L 64,44.08 C 63.363,43.417 62.472,43 61.479,43 Z" /></g><path
       inkscape:connector-curvature="0"
       id="path61"
       style="fill:#3e3e3f;fill-opacity:1"
       d="m 70.317576,37.50936 c -1.943,-13.245 -34,-14.169 -34,-2.015 0,0.883 0,1.131 0,1.131 4.955,5.791 17.126,6.421 26,4.289 v 11.994 h 2 v -1.171 c 0,-1.811 0,-2.792 2,-3.792 v -8.268 c 1.588,-0.625 2.956,-1.355 4,-2.168 z" /><path
       inkscape:connector-curvature="0"
       id="path63"
       style="fill:#3e3e3f;fill-opacity:1"
       d="m 50.317576,26.96536 c -7.379,0.199 -13.971,3.002 -13.998,8.497 -1.191,0.692 -2.002,1.968 -2.002,3.446 v 9.036 c 2,1 2,1.981 2,3.792 v 1.172 h 2 v -14.477 c 3.043,2.169 7.403,3.266 12,3.536 z" /></g></svg>